# xmcd
#
# Track frame offsets:
#	150
#	14070
#	29369
#	45444
#	65153
#	80170
#	95820
#	113354
#	129078
#	143736
#
# Disc length: 2131 seconds
#
# Revision: 1
# Processed by: cddbd v1.5.1PL2 Copyright (c) Steve Scherf et al.
# Submitted via: audiograbber 1.83.01
#
DISCID=8408510a
DTITLE=BlackHawk - Strong Enough
DYEAR=1995
DGENRE=Country
TTITLE0=Big Guitar
TTITLE1=Like There Ain't No Yesterday
TTITLE2=Cast Iron Heart
TTITLE3=I'm Not Strong Enough to Say No
TTITLE4=Almost a Memory Now
TTITLE5=King of the World
TTITLE6=Bad Love Gone Good
TTITLE7=Any Man With a Heartbeat
TTITLE8=A Kiss Is Worth a Thousand Words
TTITLE9=Hook, Line and Sinker
EXTD=
EXTT0=
EXTT1=
EXTT2=
EXTT3=
EXTT4=
EXTT5=
EXTT6=
EXTT7=
EXTT8=
EXTT9=
PLAYORDER=
